<?xml version="1.0" standalone="no"?>
<!DOCTYPE svg PUBLIC "-//W3C//DTD SVG 20010904//EN"
 "http://www.w3.org/TR/2001/REC-SVG-20010904/DTD/svg10.dtd">
<svg version="1.0" xmlns="http://www.w3.org/2000/svg"
 width="1280.000000pt" height="1280.000000pt" viewBox="0 0 1280.000000 1280.000000"
 preserveAspectRatio="xMidYMid meet">
<metadata>
Created by potrace 1.16, written by Peter Selinger 2001-2019
</metadata>
<g transform="translate(0.000000,1280.000000) scale(0.100000,-0.100000)"
fill="#000000" stroke="none">
<path d="M1468 10654 c-142 -34 -284 -146 -346 -274 -65 -132 -62 -27 -62
-1990 0 -1157 4 -1824 10 -1895 31 -325 153 -655 338 -914 76 -108 240 -282
340 -364 231 -189 517 -323 827 -389 l110 -23 3610 -3 3609 -2 -910 -913
c-974 -976 -943 -942 -979 -1078 -20 -73 -19 -222 1 -290 26 -87 75 -170 140
-236 176 -175 455 -203 674 -66 37 23 514 494 1431 1411 1507 1509 1416 1411
1459 1578 11 42 20 98 20 123 0 71 -27 179 -61 251 -29 60 -137 171 -1413
1449 -903 904 -1402 1397 -1440 1422 -214 141 -502 107 -678 -80 -115 -121
-154 -231 -146 -406 6 -110 24 -170 79 -258 20 -32 373 -393 923 -944 l891
-893 -3503 0 c-2522 0 -3523 3 -3575 11 -305 47 -555 267 -649 571 l-23 73 -5
1855 -5 1855 -22 66 c-91 268 -370 420 -645 353z"/>
</g>
</svg>
